<svg width="29" height="29" viewBox="0 0 29 29" fill="none" xmlns="http://www.w3.org/2000/svg">
<path d="M14.5 1.43359C21.9558 1.43359 28 7.47775 28 14.9336C28 22.3894 21.9558 28.4336 14.5 28.4336C7.04416 28.4336 1 22.3894 1 14.9336C1 7.47775 7.04416 1.43359 14.5 1.43359Z" fill="#F9F7ED" stroke="#7C5E24"/>
<path d="M23.372 14.9495C23.3467 14.8924 22.7346 13.5345 21.3739 12.1737C19.5607 10.3606 17.2706 9.40234 14.75 9.40234C12.2294 9.40234 9.93927 10.3606 8.12613 12.1737C6.76536 13.5345 6.15038 14.8945 6.12798 14.9495C6.09511 15.0234 6.07812 15.1034 6.07812 15.1843C6.07812 15.2652 6.09511 15.3452 6.12798 15.4192C6.15327 15.4763 6.76536 16.8334 8.12613 18.1942C9.93927 20.0066 12.2294 20.9648 14.75 20.9648C17.2706 20.9648 19.5607 20.0066 21.3739 18.1942C22.7346 16.8334 23.3467 15.4763 23.372 15.4192C23.4049 15.3452 23.4219 15.2652 23.4219 15.1843C23.4219 15.1034 23.4049 15.0234 23.372 14.9495ZM14.75 19.8086C12.5257 19.8086 10.5824 18.9999 8.9738 17.4058C8.31376 16.7494 7.75221 16.0009 7.30663 15.1836C7.75209 14.3662 8.31365 13.6177 8.9738 12.9614C10.5824 11.3672 12.5257 10.5586 14.75 10.5586C16.9743 10.5586 18.9176 11.3672 20.5262 12.9614C21.1875 13.6176 21.7503 14.3661 22.197 15.1836C21.6759 16.1563 19.4061 19.8086 14.75 19.8086ZM14.75 11.7148C14.0639 11.7148 13.3933 11.9183 12.8229 12.2994C12.2524 12.6806 11.8078 13.2223 11.5453 13.8562C11.2827 14.49 11.2141 15.1874 11.3479 15.8603C11.4817 16.5332 11.8121 17.1513 12.2972 17.6364C12.7823 18.1215 13.4004 18.4519 14.0733 18.5857C14.7461 18.7195 15.4436 18.6508 16.0774 18.3883C16.7113 18.1258 17.253 17.6812 17.6342 17.1107C18.0153 16.5403 18.2187 15.8696 18.2187 15.1836C18.2178 14.2639 17.852 13.3822 17.2017 12.7319C16.5514 12.0816 15.6697 11.7158 14.75 11.7148ZM14.75 17.4961C14.2926 17.4961 13.8455 17.3605 13.4652 17.1064C13.0849 16.8523 12.7885 16.4911 12.6135 16.0685C12.4385 15.646 12.3927 15.181 12.4819 14.7324C12.5712 14.2839 12.7914 13.8718 13.1148 13.5484C13.4382 13.225 13.8503 13.0048 14.2988 12.9155C14.7474 12.8263 15.2124 12.8721 15.6349 13.0471C16.0575 13.2221 16.4187 13.5185 16.6728 13.8988C16.9269 14.2791 17.0625 14.7262 17.0625 15.1836C17.0625 15.7969 16.8189 16.3851 16.3852 16.8188C15.9515 17.2525 15.3633 17.4961 14.75 17.4961Z" fill="#7C5E24"/>
</svg>
